PathFileType	4	(X/Y/Z)	/home/abdul/Desktop/myosuite/custom_workspace/IK/output/S13_12_3.trc
DataRate	CameraRate	NumFrames	NumMarkers	Units	OrigDataRate	OrigDataStartFrame	OrigNumFrames
200.0	200.0	61	3	mm	200.0	382	1525
Frame#	Time	V_Shoulder			V_Elbow			V_Wrist		
		X1	Y1	Z1	X2	Y2	Z2	X3	Y3	Z3

382	1.905	-72.67299526371643	587.4265239516479	336.8300970278227	-193.61073099598468	460.14169175643127	27.42751912365241	-113.50148777017273	203.5410886137595	50.08720206587111
383	1.91	-72.64435723488303	587.3618806975115	336.83477401610617	-193.4850712393685	460.02431178054456	27.42704502389674	-113.29739866711876	203.4316402992623	49.97204746799521
384	1.915	-72.61710931905263	587.2985397994889	336.83934526611296	-193.3615695228276	459.90734990616653	27.427300275094773	-113.09699368144749	203.3225395271137	49.85650477955541
385	1.92	-72.59122075007824	587.2364968857254	336.84381147853935	-193.24021979792957	459.79089965951016	27.42824372553085	-112.90016868068986	203.21392192544732	49.74055380852411
386	1.925	-72.5666615609003	587.1757480505042	336.84817288647986	-193.12101509177756	459.6750553930633	27.429832120004377	-112.70681561601403	203.10592452682897	49.624177731149715
387	1.93	-72.54340261278111	587.1162898631468	336.8524292661605	-193.00394758655204	459.559912197789	27.432020184919118	-112.51682286635658	202.99868555834297	49.50736319046345
388	1.935	-72.52141562226933	587.0581193761801	336.85657994842114	-192.8890087091806	459.4455658254248	27.434760715120703	-112.33007559580594	202.89234424007225	49.390100398219104
389	1.94	-72.50067318590071	587.0012341328177	336.860623830936	-192.77618923053183	459.33211262046217	27.438004662453707	-112.14645612249369	202.78704059206035	49.272383240901746
390	1.945	-72.48114880264419	586.9456321737998	336.86455939116416	-192.66547937348653	459.2196494613461	27.441701226018466	-111.96584429725793	202.6829152498068	49.15420939042446
391	1.95	-72.46281689410574	586.8913120436345	336.8683847000188	-192.5568689291995	459.10827371039454	27.445797944116222	-111.78811789035817	202.58010928831436	49.03558042010819
392	1.955	-72.44565282250448	586.8382727962845	336.8720974362437	-192.45034738083137	458.9980831719008	27.45024078787952	-111.61315298454133	202.47876405467616	48.91650192651028
393	1.96	-72.4296329064386	586.7865140003422	336.8756949014878	-192.34590403400057	458.8891760578503	27.454974256592827	-111.44082437278544	202.37902100916426	48.79698365763143
394	1.965	-72.41473443446147	586.7360357437313	336.8791740360652	-192.2435281531822	458.7816509606548	27.459941474715777	-111.27100595907787	202.28102157475473	48.6770396479889
395	1.97	-72.40093567648962	586.6868386379791	336.8825314353885	-192.1432091032607	458.6756068322795	27.46508429062855	-111.10357116062009	202.18490699500674	48.556688360995466
396	1.975	-72.38821589306774	586.6389238220931	336.8857633670637	-192.04493649543	458.571142969118	27.470343377125328	-110.93839330988949	202.09081820019202	48.43595283903028
397	1.98	-72.37655534251674	586.5922929660813	336.888865788632	-191.94870033662525	458.4683590019513	27.475658333687157	-110.77534605502984	201.99889568155874	48.314860861527805
398	1.985	-72.36593528599433	586.5469482741474	336.8918343659456	-191.8544911816668	458.36735489031236	27.480967790570254	-110.61430375708619	201.90927937360306	48.193445111346435
399	1.99	-72.35633799049786	586.5028924875975	336.8946644921608	-191.76230028729685	458.2682309205648	27.486209514749365	-110.4551418826461	201.82210854421322	48.07174334960801
400	1.995	-72.34774672984257	586.4601288874833	336.8973513073347	-191.67211976729482	458.1710877069987	27.49132051775824	-110.29773739049622	201.73752169254854	47.94979859912531
401	2.0	-72.34014578364894	586.4186612970142	336.8998897186047	-191.58394274786616	458.07602619524096	27.49623716547039	-110.14196911095254	201.65565645451233	47.82765933645502
402	2.005	-72.33352043437495	586.3784940837601	336.9022744209365	-191.49776352251308	457.98314766727606	27.500895289863255	-109.98771811657271	201.57664951568304	47.70537969253166
403	2.01	-72.32785696243063	586.3396321616686	336.904499918418	-191.4135777056115	457.89255374737746	27.50523030280708	-109.83486808300918	201.50063653157113	47.58301966175145
404	2.015	-72.3231426394135	586.3020809929188	336.9065605460796	-191.33138238394045	457.8043464082525	27.509177311916844	-109.68330563881393	201.42775205507803	47.46064531928694
405	2.02	-72.31936571950524	586.2658465896249	336.9084504922191	-191.2511762654326	457.718627976716	27.512671238500573	-109.53292070305675	201.3581294710435	47.33832904632186
406	2.025	-72.31651542907086	586.2309355154085	336.91016382120597	-191.17295982444045	457.6355011382168	27.515646937631317	-109.38360680967212	201.29190093778124	47.21614976280409
407	2.03	-72.31458195450335	586.1973548868486	336.91169449674186	-191.09673544284178	457.5550689395585	27.51803932036176	-109.23526141750204	201.22919733551663	47.09419316722086
408	2.035	-72.31355642835773	586.165112374818	336.9130364055496	-191.02250754633945	457.4774347891722	27.519783478090908	-109.08778620505527	201.1701482216567	46.97255198280748
409	2.04	-72.31343091381943	586.1342162057144	336.9141833814622	-190.95028273534098	457.40270245432026	27.52081480908089	-108.94108734905743	201.11488179284083	46.8513262095078
410	2.045	-72.3141983875537	586.104675162586	336.91512922988244	-190.88006990983885	457.33097605463246	27.521069147108985	-108.79507578592043	201.06352485373742	46.730623380912974
411	2.05	-72.31585272098316	586.0764985861546	336.9158677525815	-190.81188038774638	457.26236005140265	27.520482892225452	-108.64966745531453	201.0162027925718	46.61055882531518
412	2.055	-72.31838866004182	586.0496963757322	336.91639277280336	-190.7457280161795	457.1969592321011	27.518993143571635	-108.50478352508176	200.97303956338934	46.49125592992571
413	2.06	-72.32180180345539	586.0242789900243	336.9166981606401	-190.68162927521087	457.13487868958725	27.516537834195518	-108.36035059678655	200.9341576750752	46.37284640722238
414	2.065	-72.32608857959781	586.0002574478126	336.9167778586424	-190.61960337365875	457.07622379554005	27.513055867783088	-108.2163008912561	200.89967818717042	46.25547056231109
415	2.07	-72.33124622197597	585.9776433285073	336.9166259076256	-190.55967233650765	457.0211001676562	27.50848725720392	-108.07257241352258	200.86972071253973	46.13927756011011
416	2.075	-72.33727274339445	585.9564487725521	336.91623647263356	-190.5018610835947	456.9696136302018	27.502773264748615	-107.92910909663911	200.84440342696138	46.02442569109501
417	2.08	-72.34416690885386	585.9366864816681	336.9156038690175	-190.44619749922919	456.92187016754076	27.49585654391397	-107.78586092390262	200.82384308572216	45.91108263427653
418	2.085	-72.35192820723687	585.9183697189164	336.91472258858727	-190.39271249244626	456.87797587029854	27.487681282569213	-107.64278402908037	200.80815504730901	45.7994257160249
419	2.09	-72.36055682183672	585.9015123085587	336.913587325792	-190.34144004762865	456.83803687386035	27.47819334731387	-107.49984077430082	200.79745330429841	45.689642163301386
420	2.095	-72.37005359978446	585.886128635692	336.91219300388235	-190.29241726526175	456.8021592889427	27.467340428814637	-107.35699980533613	200.7918505215451	45.581929349812626
421	2.1	-72.38042002043126	585.872233645632	336.9105348010096	-190.24568439261662	456.77044912401504	27.455072187885406	-107.21423608407193	200.79145808177583	45.47649503356522
422	2.105	-72.39165816274347	585.8598428430179	336.9086081762113	-190.20128484418456	456.74301219939184	27.44134040205156	-107.07153089802841	200.79638613868792	45.37355758426857
423	2.11	-72.40377067176868	585.8489722906079	336.9064088952352	-190.15926521171366	456.71995405285327	27.426099112317083	-106.92887184686936	200.8067436776463	45.27334619901176
424	2.115	-72.41676072423162	585.839638607734	336.9039330561509	-190.11967526372337	456.7013798366962	27.40930476983097	-106.78625280590725	200.82263858406122	45.17610110462746
425	2.12	-72.43063199331995	585.8318589683862	336.9011771146983	-190.08256793439654	456.68739420615475	27.390916382128193	-106.64367386668698	200.84417771951206	45.08207374515098
426	2.125	-72.44538861271987	585.8256510988876	336.8981379093209	-190.0479993017725	456.6781011991732	27.370895658600578	-106.50114125480607	200.8714670056635	44.99152695278696
427	2.13	-72.46103513996327	585.8210332751299	336.89481268583	-190.0160285551833	456.6736041075518	27.34920715483415	-106.35866722520521	200.90461151599504	44.90473510080951
428	2.135	-72.47757651914752	585.818024319328	336.89119912164983	-189.98671795189767	456.6740053395247	27.325818415432195	-106.21626993523938	200.9437155753357	44.821984236843036
429	2.14	-72.4950180430905	585.8166435962613	336.88729534958765	-189.9601327629535	456.67940627386986	27.300700114927782	-106.07397329591802	200.98888286716175	44.743572195002685
430	2.145	-72.51336531498352	585.816911008962	336.8830999810759	-189.93634120817885	456.6899071056866	27.27382619637615	-105.93180680177915	201.0402165485787	44.669808685412185
431	2.15	-72.53262420960573	585.8188469938124	336.87861212883377	-189.91541438041736	456.70560668401254	27.24517400720551	-105.78980533994007	201.09781937286465	44.60101535966568
432	2.155	-72.55280083416332	585.8224725150129	336.87383142889354	-189.89742615898936	456.7266023414893	27.214724431895867	-105.64800897894362	201.16179381940776	44.537525850856255
433	2.16	-72.57390148881797	585.8278090583843	336.86875806193945	-189.88245311243617	456.75298971631753	27.18246202104859	-105.5064627380946	201.23224223082127	44.47968578685867
434	2.165	-72.595932626969	585.834878624465	336.8633927739056	-189.87057439060953	456.78486256677706	27.148375116405177	-105.36521633805548	201.3092669569645	44.427852775625894
435	2.17	-72.6189008153538	585.8437037208636	336.8577368957819	-189.86187160618294	456.82231257861804	27.112455971371926	-105.2243239335426	201.39297050554512	44.382396361339175
436	2.175	-72.64281269403133	585.854307353835	336.85179236257534	-189.85642870567625	456.86542916565884	27.074700866608524	-105.08384382903478	201.48345569891788	44.34369795033711
437	2.18	-72.66767493631423	585.8667130190397	336.8455617313778	-189.854331830101	456.9142992639572	27.03511022024208	-104.94383817847336	201.5808258366355	44.31215070584273
438	2.185	-72.69349420871403	585.8809446914516	336.83904819849005	-189.85566916534765	456.96900711994545	26.993688692275125	-104.80437266999819	201.685184863245	44.28815941060604
439	2.19	-72.72027713096514	585.897026814382	336.83225561555486	-189.8605307824543	457.0296340729475	26.950445282765056	-104.66551619682481	201.79663754076063	44.272140296683595
440	2.195	-72.74803023619206	585.9149842875846	336.8251885046524	-189.8690084679115	457.09625833252136	26.905393423365147	-104.5273405154253	201.91528962518115	44.264520841685645
441	2.2	-72.77675993128508	585.9348424544132	336.817852072313	-189.88119554417688	457.1689547510896	26.858551061831847	-104.38991989222934	202.0412480463557	44.26573953093417
442	2.205	-72.80647245754857	585.9566270879999	336.8102522224046	-189.89718668059191	457.24779459234696	26.809940739120755	-104.2533307401101	202.17462109044146	44.27624558509164
